/vscmnt/brussel_pixiu_data/_data_brussel/112/vsc11236/PredSimResults/SUBJ11opt3D/trackIG/worker_02.mot
version=1
nRows=4
nColumns=50
inDegrees=yes
endheader
                time	         pelvis_tilt	         pelvis_list	     pelvis_rotation	           pelvis_tx	           pelvis_ty	           pelvis_tz	       hip_flexion_r	     hip_adduction_r	      hip_rotation_r	        knee_angle_r	       ankle_angle_r	         mtp_angle_r	       hip_flexion_l	     hip_adduction_l	      hip_rotation_l	        knee_angle_l	       ankle_angle_l	         mtp_angle_l	    lumbar_extension	      lumbar_bending	     lumbar_rotation	 ercspn_r/activation	 intobl_r/activation	 extobl_r/activation	    abd_r/activation	    add_r/activation	hamstrings_r/activation	bifemsh_r/activation	glut_max_r/activation	iliopsoas_r/activation	rect_fem_r/activation	  vasti_r/activation	gastroc_r/activation	 soleus_r/activation	tib_ant_r/activation	 ercspn_l/activation	 intobl_l/activation	 extobl_l/activation	    abd_l/activation	    add_l/activation	hamstrings_l/activation	bifemsh_l/activation	glut_max_l/activation	iliopsoas_l/activation	rect_fem_l/activation	  vasti_l/activation	gastroc_l/activation	 soleus_l/activation	tib_ant_l/activation	
          0.00000000	         -1.99695054	          1.95671128	          0.17698561	          0.00000000	          0.95142126	         -0.01032606	         29.37884175	         -3.36340011	          0.85843743	         -9.89181539	         -0.21187954	          0.20329573	         -9.92167734	          0.75302097	        -12.29003596	        -13.10128613	         14.11695014	         23.06058840	        -15.39400921	         -6.97980319	         -3.90055999	          0.01301679	          0.23327997	          0.08541009	          0.00999999	          0.08906130	          0.00999999	          0.08254287	          0.05669721	          0.11573602	          0.07270466	          0.02955521	          0.00999999	          0.00999999	          0.30223184	          0.00999999	          0.00999999	          0.01108998	          0.07380639	          0.01000001	          0.00999999	          0.10516607	          0.02517978	          0.10109785	          0.02502433	          0.00999999	          0.13143667	          0.28502689	          0.01202458	
          0.01810080	         -2.22622764	          2.15120524	         -0.37674333	          0.01623619	          0.94859605	         -0.00678596	         28.82584799	         -3.07503256	          0.95104642	         -9.91631022	         -0.81874916	          0.21348963	        -10.37704204	          0.80968599	        -13.31823722	        -13.78943020	         13.86177420	         24.50326447	        -14.99438889	         -6.63665579	         -4.17396430	          0.00999999	          0.21616344	          0.06561527	          0.00999999	          0.08906766	          0.02579556	          0.08097144	          0.06993762	          0.08891280	          0.05585448	          0.02270544	          0.01301679	          0.01301679	          0.33208176	          0.01301676	          0.01000000	          0.01301678	          0.05670087	          0.01301682	          0.01301679	          0.08079257	          0.01934407	          0.07766721	          0.01922465	          0.02441896	          0.12122443	          0.27762893	          0.00999999	
          0.03620160	         -2.44249031	          2.28514449	         -0.94439566	          0.03311779	          0.94624565	         -0.00316840	         28.23765515	         -2.83400307	          1.14727940	        -10.07262500	         -1.68915682	          0.20132672	        -10.81654755	          0.78563483	        -14.30139867	        -14.56989396	         13.37537183	         26.03019724	        -14.52590491	         -6.18603735	         -4.44335785	          0.01000000	          0.18178003	          0.05040814	          0.05209152	          0.11041270	          0.03542707	          0.06220534	          0.07536075	          0.06830619	          0.04290954	          0.03034016	          0.00999999	          0.00999999	          0.40074297	          0.00999999	          0.00999999	          0.00999999	          0.04355976	          0.01000002	          0.00999999	          0.06206792	          0.01486085	          0.05966690	          0.02870889	          0.02188269	          0.09312921	          0.26079516	          0.00999999	
          0.05430240	         -2.64747705	          2.40495834	         -1.54598284	          0.05020988	          0.94478257	          0.00056969	         27.78504016	         -2.61650912	          1.16949152	        -10.45269782	         -2.63340602	          0.16206546	        -11.10408893	          0.70615017	        -15.26802176	        -15.61248176	         12.56018781	         27.67347692	        -14.04212605	         -5.69575703	         -4.70282148	          0.01585292	          0.13965032	          0.03872545	          0.07421111	          0.12018597	          0.04486686	          0.04778850	          0.06591855	          0.05247541	          0.03296474	          0.08436384	          0.00999999	          0.00999999	          0.44805079	          0.01000000	          0.00999999	          0.00999999	          0.03346426	          0.00999999	          0.00999999	          0.04768293	          0.01141667	          0.04583838	          0.02205526	          0.02881541	          0.07154539	          0.23757188	          0.00999999	
